<svg width="31" height="30" viewBox="0 0 31 30" fill="none" xmlns="http://www.w3.org/2000/svg">
<path fill-rule="evenodd" clip-rule="evenodd" d="M15.4497 29.0635C22.9159 29.0635 28.9684 23.1872 28.9684 15.9385C28.9684 8.68974 22.9159 2.81348 15.4497 2.81348C7.98346 2.81348 1.93091 8.68974 1.93091 15.9385C1.93091 18.2924 2.56918 20.5016 3.68687 22.4119L1.93091 29.0635L8.99432 27.4733C10.9125 28.4873 13.1118 29.0635 15.4497 29.0635ZM15.4497 27.0442C21.7672 27.0442 26.8886 22.072 26.8886 15.9385C26.8886 9.80493 21.7672 4.83271 15.4497 4.83271C9.1321 4.83271 4.01072 9.80493 4.01072 15.9385C4.01072 18.3067 4.77419 20.5017 6.07522 22.3043L5.05062 26.0346L8.96059 25.0856C10.8044 26.3209 13.04 27.0442 15.4497 27.0442Z" fill="#171717"/>
<path fill-rule="evenodd" clip-rule="evenodd" d="M15.4497 28.125C22.9159 28.125 28.9684 22.2487 28.9684 15C28.9684 7.75126 22.9159 1.875 15.4497 1.875C7.98346 1.875 1.93091 7.75126 1.93091 15C1.93091 17.3539 2.56918 19.5632 3.68687 21.4734L1.93091 28.125L8.99432 26.5348C10.9125 27.5488 13.1118 28.125 15.4497 28.125ZM15.4497 26.1058C21.7672 26.1058 26.8886 21.1335 26.8886 15C26.8886 8.86645 21.7672 3.89423 15.4497 3.89423C9.1321 3.89423 4.01072 8.86645 4.01072 15C4.01072 17.3682 4.77419 19.5632 6.07522 21.3658L5.05062 25.0962L8.96059 24.1471C10.8044 25.3824 13.04 26.1058 15.4497 26.1058Z" fill="#171717"/>
<path d="M12.0704 8.90556C11.749 8.27877 11.2559 8.33426 10.7578 8.33426C9.86759 8.33426 8.47949 9.36953 8.47949 11.2963C8.47949 12.8753 9.19618 14.6038 11.6112 17.1895C13.9418 19.6849 17.0042 20.9758 19.5465 20.9319C22.0888 20.8879 22.6118 18.7639 22.6118 18.0466C22.6118 17.7287 22.4086 17.57 22.2686 17.5269C21.4023 17.1233 19.8044 16.3711 19.4409 16.2298C19.0773 16.0885 18.8875 16.2796 18.7694 16.3836C18.4397 16.6887 17.7862 17.5877 17.5624 17.7899C17.3386 17.9921 17.005 17.8897 16.8662 17.8133C16.3553 17.6143 14.9701 17.0161 13.866 15.9769C12.5004 14.6917 12.4203 14.2496 12.163 13.856C11.9572 13.5411 12.1082 13.3479 12.1836 13.2635C12.4778 12.9339 12.8841 12.425 13.0662 12.1722C13.2484 11.9193 13.1038 11.5354 13.017 11.2963C12.6438 10.2679 12.3276 9.407 12.0704 8.90556Z" fill="#171717"/>
</svg>
