<svg width="180" height="50" viewBox="0 0 180 50" fill="none" xmlns="http://www.w3.org/2000/svg">
<path fill-rule="evenodd" clip-rule="evenodd" d="M0 6.85193C2.69096 5.65715 5.90756 4.32354 8.59852 3.12878C17.5449 4.14899 25.9614 3.26332 34.4317 1.80127C31.2924 3.83631 28.1523 6.09273 25.0134 7.24409C22.8157 7.33252 20.618 7.42095 18.4205 7.50958C16.965 15.1925 17.7401 21.6322 19.2278 25.9621C15.8243 25.5197 13.3773 27.215 11.8858 30.2758C11.6484 30.763 11.1551 30.35 10.8406 30.8735C11.3347 22.8193 11.9189 14.9426 11.6931 7.24409C7.97051 7.06703 3.72243 7.0288 0 6.85193Z" fill="#EEEEEE"/>
<path fill-rule="evenodd" clip-rule="evenodd" d="M30.2279 14.0673L27.4846 19.5395H33.0905L30.2279 14.0673ZM20.2126 25.7846C23.2632 24.4632 26.1789 17.4661 29.0497 11.0936C30.2157 10.6513 31.3817 10.2087 32.5479 9.76611C35.0131 14.6796 38.9117 24.068 41.1756 23.1974C41.3356 23.3443 41.1259 23.6636 41.2907 23.7981C36.984 26.4334 36.812 25.6536 34.1402 21.4743L26.4891 21.4929L26.1886 23.1351C25.6591 26.0278 24.4427 25.5935 20.2126 25.7846Z" fill="#EEEEEE"/>
<path fill-rule="evenodd" clip-rule="evenodd" d="M43.2902 2.6084C44.1572 2.6084 44.9887 2.88245 45.6018 3.37028C46.2149 3.8581 46.5593 4.51973 46.5593 5.20961C46.5593 5.72408 46.3676 6.227 46.0084 6.65477C45.6491 7.08254 45.1386 7.41594 44.5412 7.61282C43.9439 7.8097 43.2865 7.86121 42.6524 7.76084C42.0182 7.66048 41.4357 7.41274 40.9785 7.04895C40.5213 6.68516 40.21 6.22167 40.0838 5.71708C39.9577 5.2125 40.0224 4.68948 40.2698 4.21417C40.5173 3.73886 40.9363 3.33261 41.4739 3.04678C42.0115 2.76096 42.6436 2.6084 43.2902 2.6084Z" fill="#EEEEEE"/>
<path fill-rule="evenodd" clip-rule="evenodd" d="M38.2347 12.8119C41.1089 11.5287 43.5528 10.0311 46.1374 8.74756C46.6647 8.78236 47.5499 8.91152 48.0772 8.94615C48.3232 19.5243 48.2112 30.0081 48.4574 40.5864C48.5769 47.3462 36.5574 51.3158 30.6794 49.602C38.2471 48.3962 42.5109 45.5431 42.1906 39.7314L42.1402 18.3934C41.7846 13.901 41.1207 12.5665 38.714 13.4258C38.441 13.3648 38.551 12.8661 38.2347 12.8119Z" fill="#EEEEEE"/>
<path fill-rule="evenodd" clip-rule="evenodd" d="M16.6927 27.001C17.2583 27.001 17.8008 27.1768 18.2008 27.4898C18.6008 27.8028 18.8255 28.2273 18.8255 28.67C18.8255 29.0001 18.7004 29.3228 18.4661 29.5972C18.2317 29.8717 17.8986 30.0856 17.5089 30.2119C17.1192 30.3383 16.6903 30.3713 16.2766 30.3069C15.8628 30.2425 15.4828 30.0835 15.1845 29.8501C14.8862 29.6167 14.6831 29.3193 14.6008 28.9956C14.5185 28.6718 14.5607 28.3362 14.7222 28.0313C14.8836 27.7263 15.157 27.4656 15.5077 27.2823C15.8585 27.0989 16.2708 27.001 16.6927 27.001Z" fill="#EEEEEE"/>
<path fill-rule="evenodd" clip-rule="evenodd" d="M60.7339 6.22159C62.7704 4.97241 64.8941 3.85212 66.9309 2.6028C68.3729 2.18504 69.4478 2.89109 70.5033 4.59226C73.4278 9.22287 76.6722 14.0125 80.3503 20.8163C82.8165 17.4675 84.0644 14.2693 85.6611 10.089C86.8431 6.86295 88.8975 4.0258 90.9631 1.45357C93.3868 1.53803 95.7273 0.747976 97.6643 0.00410116C93.1849 4.65425 90.1251 10.5401 83.1753 23.3468C82.7888 24.3243 82.8207 25.259 83.0971 26.2366C79.2479 26.7822 78.2322 29.0095 77.4707 30.2764C77.2539 30.6371 76.914 30.5566 76.647 30.5152C76.4716 25.7644 69.5811 15.1014 64.5991 7.71203C63.5273 6.12667 61.7237 6.32155 61.3393 6.74163C60.9297 7.18948 61.1124 5.93488 60.7339 6.22159ZM81.6002 27.517C82.741 27.517 83.6661 28.2318 83.6661 29.1133C83.6661 29.9947 82.741 30.7095 81.6002 30.7095C80.4595 30.7095 79.5344 29.9947 79.5344 29.1133C79.5344 28.2318 80.4595 27.517 81.6002 27.517ZM98.1131 7.19532C98.2577 7.38558 98.4023 7.57574 98.5469 7.76606C99.6145 7.08341 100.191 7.56441 100.446 8.57466C100.797 10.5101 100.964 20.1676 100.782 25.8437C101.055 25.8753 101.329 25.9071 101.602 25.9388C102.047 24.2425 103.511 22.2378 105.392 21.7498C105.376 16.264 105.36 10.7784 105.344 5.29269C105.145 4.23994 104.325 4.10585 103.223 4.38905C101.52 5.32447 99.8164 6.25997 98.1131 7.19532ZM116.276 21.9684C114.414 22.399 113.388 23.9711 112.595 25.863C112.186 25.8454 111.87 25.8279 111.461 25.8104C111.745 20.372 111.938 14.9334 112.222 9.49499C111.191 8.88101 110.159 8.26701 109.128 7.65294C108.31 7.49394 107.492 7.41109 106.674 7.49509C106.343 7.36716 106.239 7.24902 106.98 6.71373C108.26 5.99448 109.448 5.21448 110.728 4.49518C111.589 4.114 112.315 4.1889 113.34 4.78048C119.59 9.02713 123.868 12.4834 128.331 16.5475C128.392 14.0809 128.362 11.5255 128.011 8.65294C127.887 8.00384 127.762 7.35475 127.638 6.70563C129.327 5.67061 131.016 4.63552 132.705 3.60043C132.528 9.77577 132.35 15.951 132.172 22.1263C130.64 23.2185 130.155 23.3261 128.598 25.5776C128.222 23.9373 127.478 22.3653 126.198 20.9684C123.353 17.9778 120.184 15.133 116.436 12.5476C116.383 15.6879 116.329 18.8282 116.276 21.9684ZM133.892 7.13937C133.92 7.42788 134.058 7.60731 134.306 7.54771C135.239 7.42807 135.964 7.61859 136.546 8.02135C139.488 10.6861 142.209 13.4344 144.387 16.3896C145.208 17.7889 145.486 19.2074 145.587 20.6785C145.569 22.4153 145.632 24.1788 145.614 25.9156C145.845 25.9697 146.077 25.8989 146.308 25.8104C147.627 22.9836 149.058 22.0525 150.522 21.6526C150.539 20.4771 150.557 19.3017 150.575 18.1264C150.82 17.2945 151.138 16.4357 151.962 15.3896C154.985 11.4597 158.034 7.58355 161.057 3.65387C160.915 3.60124 160.746 3.49511 160.604 3.44249C158.045 4.66757 155.665 5.65181 153.323 6.52014C153.729 7.30953 153.56 8.17915 153.456 8.96873C152.122 10.9511 150.789 13.0938 149.455 15.0763C146.846 11.5382 143.896 7.99256 140.493 4.8109C140 4.37575 139.402 4.25053 138.733 4.33724C137.097 5.24952 135.527 6.22718 133.892 7.13937ZM161.854 3.24016C161.835 3.61061 161.954 3.79998 162.21 3.80879C163.737 3.14463 164.136 4.17184 164.375 5.59612C164.558 10.5746 164.466 15.8245 164.512 20.8709C164.512 23.9763 164.512 27.0818 164.512 30.1873C168.566 30.1963 172.62 30.2053 176.675 30.2143C176.657 29.0606 176.426 28.0474 179.214 26.8016C175.853 26.8016 172.492 26.8016 169.131 26.8016C169.086 18.406 169.077 9.87529 169.032 1.47978C168.883 0.416782 168.39 -0.222276 167.142 0.0715275C165.815 0.428878 163.915 1.70582 161.854 3.24016Z" fill="#EEEEEE"/>
</svg>
